<svg xmlns="http://www.w3.org/2000/svg" viewBox="0 0 150.98 88.81"><defs><style>.cls-1{fill:#000f24;}</style></defs><title>Fichier 4</title><g id="Calque_2" data-name="Calque 2"><g id="Calque_1-2" data-name="Calque 1"><path class="cls-1" d="M29.66,60.7S43.13,66.47,57.8,50,94.28,16.64,89.29,9.34c0,0,11.8,2.94,8,10.41C93,28.12,69.66,57.5,56.91,63.21S32.23,68.71,29.66,60.7Z"/><path class="cls-1" d="M56.51,13.08S60.3,30.9,54,58.85c-3.72,16.57-4.13,24.73-6,28.33,3.91-.41,7.83-3.81,10.53-9.81,4.59-10.2,6.63-16.64,7.49-32.21a49.64,49.64,0,0,0-1.85-17.52A45.72,45.72,0,0,0,56.51,13.08Z"/><path class="cls-1" d="M56.86,13.65S69.1,23.3,75,29.67s24.62,24.61,25.12,42.75C100.43,82.8,93,87.27,89.37,88.81A108.51,108.51,0,0,1,89,75.35c.18-13.23-5.14-18.15-10.66-26.46C73.49,41.56,66.7,34.08,62.92,28,57.82,19.71,56.86,13.65,56.86,13.65Z"/><path class="cls-1" d="M46.92,16.27c5.32-.22,6.47-4.94,6-7.42A12.16,12.16,0,0,0,41.9,0c-7-.22-5.63,8.29-4.37,11.06S41.63,16.48,46.92,16.27Z"/><path class="cls-1" d="M11.93,38.46H12l5.63-17.34h5.55l5.27,17.34h.07l5.06-17.34h7.27L32.26,48H25.14L20.44,32.4h-.07L15.1,48H8L0,21.12H7.26Z"/><path class="cls-1" d="M123.61,21.12h8.66L121.58,33.83,133.23,48h-9l-9-11.65h-.07V48h-7V21.12h7V32.19h.07Z"/><path class="cls-1" d="M142.1,27v4.48H150v5.92H142.1v4.62h8.3V48H135.12V21.12H150.4V27Z"/><path class="cls-1" d="M125,76.64h8.37v5.91H118V55.7h7Z"/><path class="cls-1" d="M142.61,76.64H151v5.91H135.63V55.7h7Z"/></g></g></svg>