<svg xmlns="http://www.w3.org/2000/svg" viewBox="0 0 150.98 88.81"><defs><style>.cls-1{fill:#fff;}</style></defs><title>Fichier 5</title><g id="Calque_2" data-name="Calque 2"><g id="Calque_1-2" data-name="Calque 1"><path class="cls-1" d="M97.29,19.75c3.8-7.47-8-10.41-8-10.41,3,4.43-3.84,12.41-13,21.69-.48-.5-.91-1-1.28-1.36C69.57,23.8,58.75,15.15,57.09,13.82c-.36-.47-.58-.74-.58-.74s3.22,15.2-1.22,39.53C41.63,65.82,29.66,60.7,29.66,60.7c2.28,7.12,12.07,8,23.08,4.16C50.18,77.45,49.66,84,48.05,87.18c3.91-.41,7.83-3.81,10.53-9.81,3.09-6.86,5-12,6.21-19.4a124.85,124.85,0,0,0,11.9-11.5c.57.81,1.13,1.62,1.67,2.42C83.88,57.2,89.2,62.12,89,75.35a108.51,108.51,0,0,0,.35,13.46c3.61-1.54,11.06-6,10.78-16.39C99.8,60,90.9,47.48,83.43,38.81,90,30.94,95.45,23.37,97.29,19.75ZM66.17,41.17a48.79,48.79,0,0,0-1-9.92c1.42,2,3,4.08,4.72,6.23C68.63,38.7,67.39,39.93,66.17,41.17Z"/><path class="cls-1" d="M46.92,16.27c5.32-.22,6.47-4.94,6-7.42A12.16,12.16,0,0,0,41.9,0c-7-.22-5.63,8.29-4.37,11.06S41.63,16.48,46.92,16.27Z"/><polygon class="cls-1" points="40.85 21.12 33.58 21.12 28.52 38.46 28.45 38.46 23.18 21.12 17.63 21.12 12 38.46 11.93 38.46 7.26 21.12 0 21.12 8.01 47.97 15.1 47.97 20.37 32.4 20.44 32.4 25.14 47.97 32.26 47.97 40.85 21.12"/><polygon class="cls-1" points="133.23 47.97 121.58 33.83 132.27 21.12 123.61 21.12 115.17 32.19 115.1 32.19 115.1 21.12 108.12 21.12 108.12 47.97 115.1 47.97 115.1 36.32 115.17 36.32 124.18 47.97 133.23 47.97"/><polygon class="cls-1" points="150.4 42.05 142.1 42.05 142.1 37.42 149.97 37.42 149.97 31.51 142.1 31.51 142.1 27.03 150.4 27.03 150.4 21.12 135.12 21.12 135.12 47.97 150.4 47.97 150.4 42.05"/><polygon class="cls-1" points="124.98 55.7 118 55.7 118 82.55 133.35 82.55 133.35 76.64 124.98 76.64 124.98 55.7"/><polygon class="cls-1" points="142.61 76.64 142.61 55.7 135.63 55.7 135.63 82.55 150.98 82.55 150.98 76.64 142.61 76.64"/></g></g></svg>